# Blender v2.90.1 OBJ File: ''
# www.blender.org
mtllib Car3_wheel.mtl
o Car3_wheel.obj.001
v -0.660000 0.000000 0.214528
v -0.609761 0.248744 0.214528
v -0.609761 0.248744 -0.214528
v -0.660000 0.000000 -0.214528
v -0.609761 0.248744 0.214528
v -0.466691 0.459619 0.214528
v -0.466691 0.459619 -0.214528
v -0.609761 0.248744 -0.214528
v -0.466691 0.459619 0.214528
v -0.252571 0.600522 0.214528
v -0.252571 0.600522 -0.214528
v -0.466691 0.459619 -0.214528
v -0.252571 0.600522 0.214528
v 0.000000 0.650000 0.214528
v 0.000000 0.650000 -0.214528
v -0.252571 0.600522 -0.214528
v 0.000000 0.650000 -0.214528
v 0.000000 0.650000 0.214528
v 0.252571 0.600522 0.214528
v 0.252571 0.600522 -0.214528
v 0.252571 0.600522 -0.214528
v 0.252571 0.600522 0.214528
v 0.466690 0.459619 0.214528
v 0.466690 0.459619 -0.214528
v 0.466690 0.459619 -0.214528
v 0.466690 0.459619 0.214528
v 0.609760 0.248744 0.214528
v 0.609760 0.248744 -0.214528
v 0.609760 0.248744 -0.214528
v 0.609760 0.248744 0.214528
v 0.660000 -0.000000 0.214528
v 0.660000 -0.000000 -0.214528
v 0.660000 -0.000000 -0.214528
v 0.660000 -0.000000 0.214528
v 0.609760 -0.248744 0.214528
v 0.609760 -0.248744 -0.214528
v 0.609760 -0.248744 -0.214528
v 0.609760 -0.248744 0.214528
v 0.466690 -0.459619 0.214528
v 0.466690 -0.459619 -0.214528
v 0.466690 -0.459619 -0.214528
v 0.466690 -0.459619 0.214528
v 0.252571 -0.600522 0.214528
v 0.252571 -0.600522 -0.214528
v 0.252571 -0.600522 -0.214528
v 0.252571 -0.600522 0.214528
v 0.000000 -0.650000 0.214528
v 0.000000 -0.650000 -0.214528
v 0.000000 -0.650000 0.214528
v -0.252571 -0.600522 0.214528
v -0.252571 -0.600522 -0.214528
v 0.000000 -0.650000 -0.214528
v -0.252571 -0.600522 0.214528
v -0.466691 -0.459619 0.214528
v -0.466691 -0.459619 -0.214528
v -0.252571 -0.600522 -0.214528
v -0.466691 -0.459619 0.214528
v -0.609761 -0.248744 0.214528
v -0.609761 -0.248744 -0.214528
v -0.466691 -0.459619 -0.214528
v -0.609761 -0.248744 0.214528
v -0.660000 0.000000 0.214528
v -0.660000 0.000000 -0.214528
v -0.609761 -0.248744 -0.214528
v -0.609761 0.248744 -0.214528
v -0.466691 0.459619 -0.214528
v -0.252571 0.600522 -0.214528
v 0.000000 0.650000 -0.214528
v 0.252571 0.600522 -0.214528
v 0.466690 0.459619 -0.214528
v 0.609760 0.248744 -0.214528
v 0.660000 -0.000000 -0.214528
v 0.609760 -0.248744 -0.214528
v 0.466690 -0.459619 -0.214528
v 0.252571 -0.600522 -0.214528
v 0.000000 -0.650000 -0.214528
v -0.252571 -0.600522 -0.214528
v -0.466691 -0.459619 -0.214528
v -0.609761 -0.248744 -0.214528
v -0.660000 0.000000 -0.214528
v -0.609761 -0.248744 0.214528
v -0.466691 -0.459619 0.214528
v -0.252571 -0.600522 0.214528
v 0.000000 -0.650000 0.214528
v 0.252571 -0.600522 0.214528
v 0.466690 -0.459619 0.214528
v 0.609760 -0.248744 0.214528
v 0.660000 -0.000000 0.214528
v 0.609760 0.248744 0.214528
v 0.466690 0.459619 0.214528
v 0.252571 0.600522 0.214528
v 0.000000 0.650000 0.214528
v -0.252571 0.600522 0.214528
v -0.466691 0.459619 0.214528
v -0.609761 0.248744 0.214528
v -0.660000 0.000000 0.214528
vt 0.292005 0.347094
vt 0.334995 0.347124
vt 0.334995 0.391179
vt 0.292005 0.391149
vt 0.292005 0.347094
vt 0.334999 0.347124
vt 0.334999 0.391179
vt 0.292005 0.391149
vt 0.292010 0.347094
vt 0.335008 0.347124
vt 0.335008 0.391179
vt 0.292010 0.391149
vt 0.292019 0.347094
vt 0.335020 0.347124
vt 0.335020 0.391179
vt 0.292019 0.391149
vt 0.291979 0.391149
vt 0.291979 0.347094
vt 0.334980 0.347124
vt 0.334980 0.391179
vt 0.291991 0.391149
vt 0.291991 0.347094
vt 0.334989 0.347124
vt 0.334989 0.391179
vt 0.292000 0.391149
vt 0.292000 0.347094
vt 0.334993 0.347124
vt 0.334993 0.391179
vt 0.292004 0.391149
vt 0.292004 0.347094
vt 0.334994 0.347124
vt 0.334994 0.391179
vt 0.292005 0.391149
vt 0.292005 0.347094
vt 0.334995 0.347124
vt 0.334995 0.391179
vt 0.292005 0.391149
vt 0.292005 0.347094
vt 0.334999 0.347124
vt 0.334999 0.391179
vt 0.292010 0.391149
vt 0.292010 0.347094
vt 0.335008 0.347124
vt 0.335008 0.391179
vt 0.292019 0.391149
vt 0.292019 0.347094
vt 0.335020 0.347124
vt 0.335020 0.391179
vt 0.291979 0.347094
vt 0.334980 0.347124
vt 0.334980 0.391179
vt 0.291979 0.391149
vt 0.291991 0.347094
vt 0.334989 0.347124
vt 0.334989 0.391179
vt 0.291991 0.391149
vt 0.292000 0.347094
vt 0.334993 0.347124
vt 0.334993 0.391179
vt 0.292000 0.391149
vt 0.292004 0.347094
vt 0.334994 0.347124
vt 0.334994 0.391179
vt 0.292004 0.391149
vt 0.113502 0.443960
vt 0.113502 0.443960
vt 0.113502 0.443960
vt 0.113502 0.443960
vt 0.113502 0.443960
vt 0.113502 0.443960
vt 0.113502 0.443960
vt 0.113502 0.443960
vt 0.113502 0.443960
vt 0.113502 0.443960
vt 0.113502 0.443960
vt 0.113502 0.443960
vt 0.113502 0.443960
vt 0.113502 0.443960
vt 0.113502 0.443960
vt 0.113502 0.443960
vt 0.246558 0.418387
vt 0.231566 0.396707
vt 0.209129 0.382222
vt 0.182662 0.377135
vt 0.156196 0.382222
vt 0.133759 0.396707
vt 0.118767 0.418387
vt 0.113502 0.443960
vt 0.118767 0.469533
vt 0.133759 0.491212
vt 0.156196 0.505698
vt 0.182662 0.510785
vt 0.209129 0.505698
vt 0.231566 0.491212
vt 0.246558 0.469533
vt 0.251822 0.443960
vn -0.9802 0.1980 0.0000
vn -0.8275 0.5614 0.0000
vn -0.5497 0.8354 0.0000
vn -0.1922 0.9813 0.0000
vn 0.1922 0.9813 -0.0000
vn 0.5497 0.8354 -0.0000
vn 0.8275 0.5614 -0.0000
vn 0.9802 0.1980 -0.0000
vn 0.9802 -0.1980 -0.0000
vn 0.8275 -0.5614 0.0000
vn 0.5497 -0.8354 -0.0000
vn 0.1922 -0.9813 -0.0000
vn -0.1922 -0.9813 0.0000
vn -0.5497 -0.8354 0.0000
vn -0.8275 -0.5614 0.0000
vn -0.9802 -0.1980 0.0000
vn -0.0000 0.0000 -1.0000
vn 0.0000 -0.0000 1.0000
usemtl Default.004
s 1
f 1/1/1 2/2/1 3/3/1 4/4/1
f 5/5/2 6/6/2 7/7/2 8/8/2
f 9/9/3 10/10/3 11/11/3 12/12/3
f 13/13/4 14/14/4 15/15/4 16/16/4
f 17/17/5 18/18/5 19/19/5 20/20/5
f 21/21/6 22/22/6 23/23/6 24/24/6
f 25/25/7 26/26/7 27/27/7 28/28/7
f 29/29/8 30/30/8 31/31/8 32/32/8
f 33/33/9 34/34/9 35/35/9 36/36/9
f 37/37/10 38/38/10 39/39/10 40/40/10
f 41/41/11 42/42/11 43/43/11 44/44/11
f 45/45/12 46/46/12 47/47/12 48/48/12
f 49/49/13 50/50/13 51/51/13 52/52/13
f 53/53/14 54/54/14 55/55/14 56/56/14
f 57/57/15 58/58/15 59/59/15 60/60/15
f 61/61/16 62/62/16 63/63/16 64/64/16
f 65/65/17 66/66/17 67/67/17 68/68/17 69/69/17 70/70/17 71/71/17 72/72/17 73/73/17 74/74/17 75/75/17 76/76/17 77/77/17 78/78/17 79/79/17 80/80/17
f 81/81/18 82/82/18 83/83/18 84/84/18 85/85/18 86/86/18 87/87/18 88/88/18 89/89/18 90/90/18 91/91/18 92/92/18 93/93/18 94/94/18 95/95/18 96/96/18
